<svg width="150" height="55" viewBox="0 0 150 55" fill="none" xmlns="http://www.w3.org/2000/svg">
<rect width="150" height="55" rx="5" fill="#EEC100"/>
<path d="M39.4434 29.9648H36.1035V39H29.9336V13.4062H40.0059C43.041 13.4062 45.4141 14.0801 47.125 15.4277C48.8359 16.7754 49.6914 18.6797 49.6914 21.1406C49.6914 22.9219 49.3281 24.3984 48.6016 25.5703C47.8867 26.7422 46.7617 27.6914 45.2266 28.418L50.5703 38.7363V39H43.9609L39.4434 29.9648ZM36.1035 25.2012H40.0059C41.1777 25.2012 42.0566 24.8965 42.6426 24.2871C43.2402 23.666 43.5391 22.8047 43.5391 21.7031C43.5391 20.6016 43.2402 19.7402 42.6426 19.1191C42.0449 18.4863 41.166 18.1699 40.0059 18.1699H36.1035V25.2012ZM59.7215 13.4062L65.4344 31.2129L71.1297 13.4062H79.2508V39H73.0633V33.0234L73.6609 20.7891L67.4734 39H63.3953L57.1902 20.7715L57.7879 33.0234V39H51.618V13.4062H59.7215ZM81.3883 39V13.4062H89.6324C91.8941 13.4062 93.9273 13.9219 95.732 14.9531C97.5367 15.9727 98.943 17.4199 99.9508 19.2949C100.97 21.1582 101.486 23.25 101.498 25.5703V26.748C101.498 29.0918 101 31.1953 100.004 33.0586C99.0191 34.9102 97.6246 36.3633 95.8199 37.418C94.027 38.4609 92.023 38.9883 89.8082 39H81.3883ZM87.5582 18.1699V34.2539H89.7027C91.4723 34.2539 92.8316 33.627 93.7809 32.373C94.7301 31.1074 95.2047 29.2324 95.2047 26.748V25.6406C95.2047 23.168 94.7301 21.3047 93.7809 20.0508C92.8316 18.7969 91.4488 18.1699 89.6324 18.1699H87.5582ZM120.246 29.6484C120.246 32.7656 119.602 35.1621 118.313 36.8379C117.024 38.5137 115.207 39.3516 112.864 39.3516C110.93 39.3516 109.371 38.584 108.188 37.0488L107.942 39H102.633V12H108.557V21.5098C109.659 20.2559 111.082 19.6289 112.829 19.6289C115.196 19.6289 117.024 20.4785 118.313 22.1777C119.602 23.877 120.246 26.2676 120.246 29.3496V29.6484ZM114.305 29.2793C114.305 27.4512 114.059 26.1504 113.567 25.377C113.086 24.5918 112.342 24.1992 111.334 24.1992C109.998 24.1992 109.073 24.709 108.557 25.7285V33.2871C109.061 34.2949 109.998 34.7988 111.37 34.7988C112.764 34.7988 113.649 34.1191 114.024 32.7598C114.211 32.0918 114.305 30.9316 114.305 29.2793Z" fill="black" fill-opacity="0.85"/>
</svg>
