<svg width="150" height="55" viewBox="0 0 150 55" fill="none" xmlns="http://www.w3.org/2000/svg">
<g clip-path="url(#clip0)">
<path d="M18.5521 35.0466H21.1077V25.5522H24.2893V23.1957H15.3705V25.5522H18.5521V35.0466ZM32.6006 35.0466H35.1562V23.1786H32.6006V27.9258H28.7745V23.1786H26.2189V35.0466H28.7745V30.2994H32.6006V35.0466ZM44.6495 32.673H39.8549V30.2994H43.9498V27.9258H39.8549V25.5522H44.4322V23.1786H37.2957V35.0466H44.6495V32.673ZM58.105 28.2302L53.0638 23.0179H52.2426V35.0706H54.8314V28.4457L58.105 31.6333L61.375 28.4457L61.3566 35.0706H63.9491V23.0179H63.1426L58.105 28.2302Z" fill="#01D277"/>
<path d="M72.6065 23.0008C63.8128 23.0008 63.8128 35.2347 72.6065 35.2347C81.4001 35.2347 81.4075 23.0008 72.6065 23.0008ZM72.6065 32.7791C67.4953 32.7791 67.4953 25.4427 72.6065 25.4427C77.7177 25.4427 77.725 32.7791 72.6065 32.7791Z" fill="#01D277"/>
<path d="M93.7178 23.1991H96.2734V35.0671H93.7178V23.1991ZM100.968 32.697V30.3233H105.067V27.9497H100.968V25.5761H105.549V23.1991H98.4129V35.0706H105.763V32.697H100.968Z" fill="#01D277"/>
<path d="M116.935 23.3359H113.128V35.204H116.935C125.442 35.204 125.442 23.3359 116.935 23.3359ZM116.935 32.8304H115.683V25.7095H116.935C121.914 25.7095 121.914 32.8304 116.935 32.8304Z" fill="#01D277"/>
<path d="M132.851 29.2597C133.654 28.7467 133.996 27.8164 134.029 26.9203C134.085 24.8271 132.671 23.3188 130.402 23.3188H125.343V35.204H130.384C130.884 35.2004 131.379 35.1051 131.839 34.9236C132.3 34.742 132.717 34.4778 133.068 34.146C133.418 33.8143 133.694 33.4215 133.881 32.9903C134.067 32.5591 134.16 32.098 134.155 31.6333C134.159 31.1695 134.043 30.7114 133.816 30.2982C133.589 29.885 133.258 29.5287 132.851 29.2597ZM127.917 25.689H130.189C130.514 25.7119 130.817 25.8479 131.039 26.0698C131.26 26.2918 131.384 26.5834 131.384 26.8861C131.384 27.1888 131.26 27.4803 131.039 27.7023C130.817 27.9243 130.514 28.0603 130.189 28.0832H127.917V25.689ZM130.189 32.827H127.917V30.4533H130.189C130.357 30.4496 130.525 30.4775 130.682 30.5354C130.838 30.5932 130.981 30.6797 131.101 30.7899C131.221 30.9 131.316 31.0314 131.38 31.1764C131.444 31.3213 131.476 31.4767 131.474 31.6333C131.476 31.7909 131.445 31.9473 131.381 32.0933C131.317 32.2394 131.223 32.3721 131.103 32.4836C130.983 32.5952 130.841 32.6834 130.684 32.7429C130.527 32.8025 130.358 32.8322 130.189 32.8304V32.827Z" fill="#01D277"/>
<path d="M85.8484 29.6085L82.4864 23.1991H79.5367L85.5649 35.3202H86.1357L92.1638 23.1991H89.2142L85.8484 29.6085Z" fill="#01D277"/>
<path d="M140.982 50.021C146.358 50.021 149.996 46.6418 149.996 41.6484V8.37683C149.996 3.38336 146.358 0.00418091 140.982 0.00418091H9.01458C3.63823 0.00418091 0 3.38336 0 8.37683V55.0042L4.62515 50.0244V8.37683C4.6271 7.29613 5.09016 6.26018 5.91292 5.49602C6.73568 4.73185 7.85102 4.30176 9.01458 4.29995H140.982C142.145 4.30176 143.261 4.73185 144.083 5.49602C144.906 6.26018 145.369 7.29613 145.371 8.37683V41.6484C145.369 42.7291 144.906 43.765 144.083 44.5292C143.261 45.2933 142.145 45.7234 140.982 45.7252H15.8602L11.2351 50.021L11.2057 49.9868L140.982 50.021Z" fill="#01D277"/>
<path d="M15.6024 18.0757V12.9454H17.775C19.9256 12.9454 19.9182 16.1125 17.775 16.1125H16.7071V18.0723H15.6024V18.0757ZM17.683 15.1172C18.4194 15.1172 18.4194 13.968 17.683 13.968H16.7071V15.1172H17.683ZM23.6191 12.8565C27.423 12.8565 27.423 18.1475 23.6191 18.1475C19.8151 18.1475 19.8151 12.8565 23.6191 12.8565ZM23.6191 13.9133C21.4096 13.9133 21.4096 17.0872 23.6191 17.0872C25.8285 17.0872 25.8322 13.9099 23.6191 13.9099V13.9133ZM29.8976 18.1851L27.6329 12.942H28.8776L29.9823 15.5619L31.0649 12.9899H31.1201L32.2027 15.5619L33.3075 12.942H34.5522L32.2948 18.1612H32.0923L31.0797 15.8833L30.0744 18.1817H29.8829L29.8976 18.1851ZM35.9405 18.0757V12.9454H38.6912V13.9715H37.0304V14.9975H38.485V16.0236H37.0304V17.0496H38.787V18.0757H35.9257H35.9405ZM43.2832 18.0757L42.1785 16.1159H41.6372V18.0757H40.5324V12.9454H42.7124C44.6825 12.9454 44.8777 15.5242 43.2537 15.962L44.5389 18.0791H43.2869L43.2832 18.0757ZM41.6372 15.1172H42.613C43.3495 15.1172 43.3495 13.968 42.613 13.968H41.6372V15.1172ZM45.9677 18.0757V12.9454H48.7369V13.9715H47.0761V14.9975H48.5307V16.0236H47.0761V17.0496H48.8326V18.0757H45.9714H45.9677ZM52.2094 18.0757H50.5634V12.9454H52.2094C55.8881 12.942 55.8881 18.0757 52.2094 18.0757ZM51.6681 13.9715V17.0496H52.2094C54.3599 17.0496 54.3599 13.9715 52.2094 13.9715H51.6681ZM66.2689 15.7636L64.343 12.942H65.6871L66.8176 14.7102L67.9481 12.942H69.2996L67.3663 15.7636V18.0757H66.2616V15.7636H66.2689ZM62.8406 15.5619C63.0062 15.4398 63.1387 15.2834 63.2276 15.1052C63.3164 14.927 63.3592 14.7321 63.3524 14.5358C63.3753 14.3345 63.3512 14.131 63.282 13.9391C63.2128 13.7472 63.1 13.5713 62.9513 13.4234C62.8025 13.2756 62.6213 13.1591 62.4199 13.0819C62.2184 13.0048 62.0015 12.9687 61.7837 12.9762H59.5964V18.1065H61.7837C62 18.1051 62.2139 18.0641 62.4131 17.9858C62.6123 17.9075 62.7929 17.7933 62.9444 17.65C63.096 17.5067 63.2157 17.337 63.2964 17.1506C63.3772 16.9642 63.4174 16.7648 63.415 16.5639C63.4113 16.3666 63.3574 16.1729 63.2576 15.9987C63.1577 15.8245 63.0148 15.6748 62.8406 15.5619ZM60.7085 14.0193H61.6917C61.8227 14.0393 61.9418 14.1018 62.0277 14.1958C62.1137 14.2898 62.1609 14.4091 62.1609 14.5324C62.1609 14.6557 62.1137 14.7749 62.0277 14.8689C61.9418 14.9629 61.8227 15.0255 61.6917 15.0454H60.7085V14.0193ZM61.6917 17.0975H60.7085V16.0715H61.6917C61.7646 16.0696 61.8372 16.0815 61.9051 16.1063C61.973 16.1312 62.0347 16.1686 62.0867 16.2162C62.1386 16.2638 62.1797 16.3206 62.2073 16.3833C62.235 16.446 62.2487 16.5133 62.2477 16.5811C62.2502 16.6503 62.2375 16.7193 62.2104 16.7838C62.1832 16.8483 62.1422 16.9069 62.0898 16.9562C62.0374 17.0055 61.9748 17.0444 61.9057 17.0705C61.8366 17.0965 61.7625 17.1092 61.688 17.1077L61.6917 17.0975Z" fill="#01D277"/>
</g>
<defs>
<clipPath id="clip0">
<rect width="150" height="55" fill="white"/>
</clipPath>
</defs>
</svg>
